<?xml version="1.0" encoding="UTF-8" ?>
<!DOCTYPE svg PUBLIC "-//W3C//DTD SVG 1.1//EN" "http://www.w3.org/Graphics/SVG/1.1/DTD/svg11.dtd">
<svg width="512pt" height="512pt" viewBox="0 0 512 512" version="1.1" xmlns="http://www.w3.org/2000/svg">
<g id="#000000ff">
<path fill="#000000" stroke="#000000" stroke-width="0.09375" opacity="1.00" d=" M 29.81 0.00 L 465.05 0.00 C 475.51 2.54 484.78 10.92 486.04 21.97 C 488.40 35.53 477.77 49.54 464.08 50.90 C 452.51 51.60 440.90 50.92 429.32 51.25 C 441.92 99.72 454.66 148.18 467.55 196.58 C 490.64 199.88 509.52 219.53 512.00 242.72 L 512.00 253.18 C 509.45 270.09 498.93 285.89 483.31 293.31 C 460.39 305.67 429.29 295.90 416.77 273.29 C 406.34 256.63 407.70 233.94 419.06 218.10 C 426.27 207.65 437.56 200.42 449.84 197.48 C 437.46 148.69 424.33 100.05 411.56 51.34 C 388.18 51.04 364.78 51.17 341.40 51.28 C 341.31 99.78 341.31 148.29 341.40 196.79 C 363.01 200.79 381.53 219.16 383.56 241.37 C 386.44 262.88 374.03 285.42 354.06 294.11 C 331.94 304.57 303.61 296.15 290.08 275.96 C 277.22 295.37 251.01 303.69 229.29 295.33 C 220.54 318.92 206.47 340.30 188.94 358.28 C 270.95 358.62 352.97 358.23 434.98 358.47 C 439.61 358.33 443.71 362.35 443.65 366.98 C 444.02 386.85 443.28 406.77 444.01 426.61 C 463.67 426.76 483.34 426.53 503.00 426.72 C 507.23 426.49 510.60 429.61 512.00 433.38 L 512.00 505.49 C 510.71 508.38 508.44 510.63 505.60 512.00 L 6.51 512.00 C 3.62 510.71 1.37 508.44 0.00 505.60 L 0.00 364.67 C 1.70 361.59 4.35 358.50 8.18 358.51 C 22.12 358.16 36.09 358.65 50.04 358.29 C 45.27 352.33 39.38 347.33 35.06 340.99 C 13.21 313.39 1.25 278.55 0.00 243.47 L 0.00 228.93 C 2.39 209.37 9.75 189.28 25.94 176.96 C 38.22 167.67 52.98 162.18 68.14 159.97 C 68.37 123.74 68.37 87.48 68.14 51.25 C 56.08 50.97 43.99 51.49 31.93 51.00 C 18.17 50.27 6.97 36.67 8.76 23.01 C 9.56 11.56 19.05 2.65 29.81 0.00 M 32.30 17.40 C 22.83 18.90 24.33 34.36 33.92 34.00 C 175.96 34.15 318.00 34.04 460.03 34.05 C 465.79 34.66 470.79 28.60 468.86 23.07 C 467.66 18.87 463.16 16.74 459.04 17.03 C 318.02 17.04 176.99 17.04 35.96 17.03 C 34.73 17.02 33.51 17.14 32.30 17.40 M 85.36 51.25 C 85.34 87.04 85.31 122.84 85.38 158.64 C 93.88 158.79 102.35 159.35 110.81 160.13 C 110.58 135.04 101.79 110.45 87.16 90.18 C 91.60 86.73 96.07 83.29 100.71 80.11 C 106.76 88.28 111.58 97.20 116.10 106.28 C 123.94 93.24 138.35 84.93 153.61 84.81 C 153.57 73.63 153.61 62.44 153.58 51.26 C 130.85 51.13 108.10 51.16 85.36 51.25 M 170.81 51.20 C 170.57 62.44 170.54 73.72 170.82 84.95 C 174.88 85.63 178.89 88.49 179.06 92.94 C 179.51 102.65 179.44 112.92 174.71 121.72 C 173.44 124.87 170.10 127.29 170.64 130.99 C 170.76 140.65 170.47 150.33 170.78 159.99 C 194.90 163.29 219.64 175.83 230.42 198.70 C 233.20 199.18 236.14 197.66 238.88 196.97 C 239.01 148.39 239.03 99.79 238.87 51.21 C 216.18 51.17 193.49 51.18 170.81 51.20 M 256.09 51.21 C 255.94 99.78 255.94 148.38 256.09 196.95 C 269.79 199.51 282.23 207.56 290.12 219.05 C 298.06 207.62 310.42 199.46 324.15 196.99 C 324.37 148.41 324.35 99.80 324.16 51.22 C 301.47 51.16 278.78 51.18 256.09 51.21 M 141.69 104.77 C 133.10 108.80 127.57 118.30 128.08 127.75 C 134.86 127.76 142.07 128.45 148.32 125.26 C 156.93 121.20 162.74 111.72 161.96 102.16 C 155.16 102.01 147.93 101.55 141.69 104.77 M 126.93 144.92 C 127.07 150.02 127.54 155.11 127.99 160.19 C 136.49 159.35 145.02 158.84 153.56 158.64 C 153.63 153.09 153.60 147.53 153.58 141.98 C 144.96 144.68 135.92 145.11 126.93 144.92 M 74.41 176.53 C 57.09 178.34 38.71 184.40 28.12 199.10 C 15.94 216.02 15.98 238.10 18.39 257.93 C 22.62 292.48 39.58 325.25 65.20 348.78 C 75.53 357.97 90.94 360.83 103.90 356.04 C 108.49 354.53 112.45 351.59 117.06 350.16 C 122.34 348.67 126.78 352.73 131.40 354.53 C 142.87 360.04 157.05 359.55 167.98 352.96 C 174.45 349.32 179.04 343.36 184.17 338.16 C 206.87 312.62 220.50 279.09 221.58 244.90 C 222.56 229.59 220.45 213.32 211.69 200.36 C 204.51 189.69 192.82 182.87 180.61 179.50 C 164.77 175.32 148.13 175.05 131.95 177.04 C 126.54 177.58 121.17 179.53 115.70 178.45 C 102.12 175.83 88.18 175.35 74.41 176.53 M 236.44 215.92 C 240.83 236.67 238.79 258.20 234.31 278.75 C 249.36 285.63 268.77 279.22 276.90 264.85 C 285.21 251.52 282.35 232.73 270.61 222.36 C 261.79 214.15 247.16 210.56 236.44 215.92 M 331.40 213.47 C 317.64 213.84 304.73 223.49 300.57 236.62 C 297.28 246.02 298.58 256.83 303.80 265.30 C 311.66 278.57 329.16 284.92 343.68 279.69 C 358.63 274.98 368.81 258.87 366.57 243.35 C 364.91 226.23 348.55 212.38 331.40 213.47 M 459.40 213.49 C 445.63 213.82 432.74 223.49 428.57 236.61 C 424.04 249.40 428.26 264.62 438.65 273.31 C 448.86 282.32 464.67 284.06 476.63 277.57 C 488.93 271.33 496.47 257.03 494.57 243.35 C 492.90 226.24 476.56 212.37 459.40 213.49 M 17.16 375.46 C 16.94 392.51 16.99 409.59 17.13 426.65 C 125.01 426.64 232.89 426.68 340.77 426.63 L 341.34 426.11 C 341.35 409.35 341.35 392.59 341.34 375.82 C 340.01 375.13 338.44 375.58 337.02 375.46 C 270.20 375.53 203.38 375.37 136.57 375.54 C 136.37 384.34 136.78 393.17 136.37 401.96 C 136.05 406.58 131.54 409.86 127.08 409.58 C 104.71 409.58 82.34 409.65 59.97 409.55 C 55.66 409.67 51.73 406.21 51.34 401.91 C 50.76 393.12 51.72 384.21 50.86 375.46 C 39.63 375.47 28.39 375.47 17.16 375.46 M 68.38 375.49 C 68.21 381.16 68.21 386.84 68.38 392.51 C 85.39 392.35 102.49 392.93 119.45 392.22 C 119.49 386.74 119.49 381.26 119.45 375.79 C 102.50 375.06 85.39 375.66 68.38 375.49 M 358.48 375.51 C 358.34 392.53 358.40 409.56 358.44 426.58 C 364.10 426.70 369.78 426.73 375.44 426.57 C 375.46 409.57 375.53 392.57 375.41 375.57 C 369.77 375.36 364.12 375.46 358.48 375.51 M 392.58 375.55 C 392.49 392.56 392.52 409.57 392.56 426.58 C 403.91 426.72 415.26 426.67 426.61 426.61 C 426.67 409.57 426.71 392.53 426.59 375.50 C 415.25 375.48 403.91 375.38 392.58 375.55 M 17.08 443.79 C 17.01 460.83 16.99 477.87 17.09 494.91 C 28.43 495.00 39.78 495.00 51.12 494.91 C 51.24 477.88 51.22 460.84 51.13 443.81 C 39.78 443.64 28.43 443.68 17.08 443.79 M 68.31 444.06 C 68.26 460.99 68.28 477.92 68.30 494.84 C 73.94 495.09 79.59 494.97 85.23 494.91 C 85.41 477.89 85.43 460.84 85.22 443.82 C 79.60 443.80 73.87 443.33 68.31 444.06 M 102.43 444.26 C 102.38 461.12 102.43 477.98 102.40 494.84 C 204.79 495.05 307.21 495.04 409.60 494.84 C 409.57 477.98 409.62 461.12 409.57 444.26 L 409.01 443.76 C 307.01 443.69 204.99 443.69 102.99 443.76 L 102.43 444.26 M 426.78 443.82 C 426.56 460.84 426.59 477.89 426.77 494.91 C 432.41 494.97 438.06 495.09 443.70 494.84 C 443.72 477.91 443.74 460.98 443.69 444.05 C 438.12 443.35 432.40 443.79 426.78 443.82 M 460.87 443.81 C 460.78 460.84 460.76 477.88 460.88 494.91 C 472.22 495.00 483.57 495.01 494.91 494.91 C 495.01 477.87 494.99 460.83 494.92 443.79 C 483.57 443.68 472.22 443.64 460.87 443.81 Z" />
<path fill="#000000" stroke="#000000" stroke-width="0.09375" opacity="1.00" d=" M 56.78 209.76 C 68.62 197.91 86.52 196.50 102.36 196.41 C 102.41 202.03 102.52 207.66 102.30 213.28 C 90.68 213.88 77.11 213.38 68.19 222.17 C 60.30 231.40 60.20 244.39 59.73 255.89 C 54.08 256.11 48.41 256.01 42.76 255.95 C 42.73 239.81 44.95 221.83 56.78 209.76 Z" />
<path fill="#000000" stroke="#000000" stroke-width="0.09375" opacity="1.00" d=" M 42.76 273.08 C 48.40 273.02 54.06 272.91 59.70 273.15 C 59.74 278.73 59.74 284.31 59.71 289.89 C 54.07 290.25 48.40 290.08 42.75 289.99 C 42.58 284.36 42.58 278.71 42.76 273.08 Z" />
<path fill="#000000" stroke="#000000" stroke-width="0.09375" opacity="1.00" d=" M 153.64 392.61 C 199.11 392.48 244.58 392.48 290.05 392.60 C 290.08 398.26 290.38 403.96 289.89 409.60 C 244.48 409.35 198.89 410.08 153.58 409.24 C 153.62 403.69 153.52 398.15 153.64 392.61 Z" />
<path fill="#000000" stroke="#000000" stroke-width="0.09375" opacity="1.00" d=" M 307.16 392.64 C 312.85 392.43 318.54 392.49 324.23 392.60 C 324.00 398.19 324.96 404.30 323.76 409.58 C 318.26 409.62 312.76 409.62 307.26 409.58 C 307.06 403.93 307.24 398.28 307.16 392.64 Z" />
<path fill="#000000" stroke="#000000" stroke-width="0.09375" opacity="1.00" d=" M 119.46 461.15 C 120.93 460.68 122.49 460.82 124.01 460.79 C 202.11 460.89 280.22 460.70 358.32 460.89 C 358.47 466.54 358.48 472.21 358.32 477.87 C 278.70 477.83 199.08 478.00 119.47 477.78 C 119.46 472.24 119.46 466.69 119.46 461.15 Z" />
<path fill="#000000" stroke="#000000" stroke-width="0.09375" opacity="1.00" d=" M 375.46 461.15 C 381.08 460.57 386.91 460.59 392.54 461.14 C 392.54 466.68 392.54 472.23 392.54 477.78 C 386.85 477.95 381.15 477.95 375.47 477.78 C 375.46 472.24 375.46 466.69 375.46 461.15 Z" />
</g>
<g id="#0071bcff">
<path fill="#0071bc" stroke="#0071bc" stroke-width="0.09375" opacity="1.00" d=" M 32.30 17.40 C 33.51 17.14 34.73 17.02 35.96 17.03 C 176.99 17.04 318.02 17.04 459.04 17.03 C 463.16 16.74 467.66 18.87 468.86 23.07 C 470.79 28.60 465.79 34.66 460.03 34.05 C 318.00 34.04 175.96 34.15 33.92 34.00 C 24.33 34.36 22.83 18.90 32.30 17.40 Z" />
<path fill="#0071bc" stroke="#0071bc" stroke-width="0.09375" opacity="1.00" d=" M 236.44 215.92 C 247.16 210.56 261.79 214.15 270.61 222.36 C 282.35 232.73 285.21 251.52 276.90 264.85 C 268.77 279.22 249.36 285.63 234.31 278.75 C 238.79 258.20 240.83 236.67 236.44 215.92 Z" />
<path fill="#0071bc" stroke="#0071bc" stroke-width="0.09375" opacity="1.00" d=" M 459.40 213.49 C 476.56 212.37 492.90 226.24 494.57 243.35 C 496.47 257.03 488.93 271.33 476.63 277.57 C 464.67 284.06 448.86 282.32 438.65 273.31 C 428.26 264.62 424.04 249.40 428.57 236.61 C 432.74 223.49 445.63 213.82 459.40 213.49 Z" />
<path fill="#0071bc" stroke="#0071bc" stroke-width="0.09375" opacity="1.00" d=" M 68.31 444.06 C 73.87 443.33 79.60 443.80 85.22 443.82 C 85.43 460.84 85.41 477.89 85.23 494.91 C 79.59 494.97 73.94 495.09 68.30 494.84 C 68.28 477.92 68.26 460.99 68.31 444.06 Z" />
<path fill="#0071bc" stroke="#0071bc" stroke-width="0.09375" opacity="1.00" d=" M 426.78 443.82 C 432.40 443.79 438.12 443.35 443.69 444.05 C 443.74 460.98 443.72 477.91 443.70 494.84 C 438.06 495.09 432.41 494.97 426.77 494.91 C 426.59 477.89 426.56 460.84 426.78 443.82 Z" />
</g>
<g id="#009245ff">
<path fill="#009245" stroke="#009245" stroke-width="0.09375" opacity="1.00" d=" M 141.69 104.77 C 147.93 101.55 155.16 102.01 161.96 102.16 C 162.74 111.72 156.93 121.20 148.32 125.26 C 142.07 128.45 134.86 127.76 128.08 127.75 C 127.57 118.30 133.10 108.80 141.69 104.77 Z" />
</g>
<g id="#da4836ff">
<path fill="#da4836" stroke="#da4836" stroke-width="0.09375" opacity="1.00" d=" M 74.41 176.53 C 88.18 175.35 102.12 175.83 115.70 178.45 C 121.17 179.53 126.54 177.58 131.95 177.04 C 148.13 175.05 164.77 175.32 180.61 179.50 C 192.82 182.87 204.51 189.69 211.69 200.36 C 220.45 213.32 222.56 229.59 221.58 244.90 C 220.50 279.09 206.87 312.62 184.17 338.16 C 179.04 343.36 174.45 349.32 167.98 352.96 C 157.05 359.55 142.87 360.04 131.40 354.53 C 126.78 352.73 122.34 348.67 117.06 350.16 C 112.45 351.59 108.49 354.53 103.90 356.04 C 90.94 360.83 75.53 357.97 65.20 348.78 C 39.58 325.25 22.62 292.48 18.39 257.93 C 15.98 238.10 15.94 216.02 28.12 199.10 C 38.71 184.40 57.09 178.34 74.41 176.53 M 56.78 209.76 C 44.95 221.83 42.73 239.81 42.76 255.95 C 48.41 256.01 54.08 256.11 59.73 255.89 C 60.20 244.39 60.30 231.40 68.19 222.17 C 77.11 213.38 90.68 213.88 102.30 213.28 C 102.52 207.66 102.41 202.03 102.36 196.41 C 86.52 196.50 68.62 197.91 56.78 209.76 M 42.76 273.08 C 42.58 278.71 42.58 284.36 42.75 289.99 C 48.40 290.08 54.07 290.25 59.71 289.89 C 59.74 284.31 59.74 278.73 59.70 273.15 C 54.06 272.91 48.40 273.02 42.76 273.08 Z" />
<path fill="#da4836" stroke="#da4836" stroke-width="0.09375" opacity="1.00" d=" M 68.38 375.49 C 85.39 375.66 102.50 375.06 119.45 375.79 C 119.49 381.26 119.49 386.74 119.45 392.22 C 102.49 392.93 85.39 392.35 68.38 392.51 C 68.21 386.84 68.21 381.16 68.38 375.49 Z" />
</g>
<g id="#29abe2ff">
<path fill="#29abe2" stroke="#29abe2" stroke-width="0.09375" opacity="1.00" d=" M 331.40 213.47 C 348.55 212.38 364.91 226.23 366.57 243.35 C 368.81 258.87 358.63 274.98 343.68 279.69 C 329.16 284.92 311.66 278.57 303.80 265.30 C 298.58 256.83 297.28 246.02 300.57 236.62 C 304.73 223.49 317.64 213.84 331.40 213.47 Z" />
<path fill="#29abe2" stroke="#29abe2" stroke-width="0.09375" opacity="1.00" d=" M 17.08 443.79 C 28.43 443.68 39.78 443.64 51.13 443.81 C 51.22 460.84 51.24 477.88 51.12 494.91 C 39.78 495.00 28.43 495.00 17.09 494.91 C 16.99 477.87 17.01 460.83 17.08 443.79 Z" />
<path fill="#29abe2" stroke="#29abe2" stroke-width="0.09375" opacity="1.00" d=" M 102.43 444.26 L 102.99 443.76 C 204.99 443.69 307.01 443.69 409.01 443.76 L 409.57 444.26 C 409.62 461.12 409.57 477.98 409.60 494.84 C 307.21 495.04 204.79 495.05 102.40 494.84 C 102.43 477.98 102.38 461.12 102.43 444.26 M 119.46 461.15 C 119.46 466.69 119.46 472.24 119.47 477.78 C 199.08 478.00 278.70 477.83 358.32 477.87 C 358.48 472.21 358.47 466.54 358.32 460.89 C 280.22 460.70 202.11 460.89 124.01 460.79 C 122.49 460.82 120.93 460.68 119.46 461.15 M 375.46 461.15 C 375.46 466.69 375.46 472.24 375.47 477.78 C 381.15 477.95 386.85 477.95 392.54 477.78 C 392.54 472.23 392.54 466.68 392.54 461.14 C 386.91 460.59 381.08 460.57 375.46 461.15 Z" />
<path fill="#29abe2" stroke="#29abe2" stroke-width="0.09375" opacity="1.00" d=" M 460.87 443.81 C 472.22 443.64 483.57 443.68 494.92 443.79 C 494.99 460.83 495.01 477.87 494.91 494.91 C 483.57 495.01 472.22 495.00 460.88 494.91 C 460.76 477.88 460.78 460.84 460.87 443.81 Z" />
</g>
<g id="#fbb03bff">
<path fill="#fbb03b" stroke="#fbb03b" stroke-width="0.09375" opacity="1.00" d=" M 17.16 375.46 C 28.39 375.47 39.63 375.47 50.86 375.46 C 51.72 384.21 50.76 393.12 51.34 401.91 C 51.73 406.21 55.66 409.67 59.97 409.55 C 82.34 409.65 104.71 409.58 127.08 409.58 C 131.54 409.86 136.05 406.58 136.37 401.96 C 136.78 393.17 136.37 384.34 136.57 375.54 C 203.38 375.37 270.20 375.53 337.02 375.46 C 338.44 375.58 340.01 375.13 341.34 375.82 C 341.35 392.59 341.35 409.35 341.34 426.11 L 340.77 426.63 C 232.89 426.68 125.01 426.64 17.13 426.65 C 16.99 409.59 16.94 392.51 17.16 375.46 M 153.64 392.61 C 153.52 398.15 153.62 403.69 153.58 409.24 C 198.89 410.08 244.48 409.35 289.89 409.60 C 290.38 403.96 290.08 398.26 290.05 392.60 C 244.58 392.48 199.11 392.48 153.64 392.61 M 307.16 392.64 C 307.24 398.28 307.06 403.93 307.26 409.58 C 312.76 409.62 318.26 409.62 323.76 409.58 C 324.96 404.30 324.00 398.19 324.23 392.60 C 318.54 392.49 312.85 392.43 307.16 392.64 Z" />
<path fill="#fbb03b" stroke="#fbb03b" stroke-width="0.09375" opacity="1.00" d=" M 392.58 375.55 C 403.91 375.38 415.25 375.48 426.59 375.50 C 426.71 392.53 426.67 409.57 426.61 426.61 C 415.26 426.67 403.91 426.72 392.56 426.58 C 392.52 409.57 392.49 392.56 392.58 375.55 Z" />
</g>
<g id="#f15a24ff">
<path fill="#f15a24" stroke="#f15a24" stroke-width="0.09375" opacity="1.00" d=" M 358.48 375.51 C 364.12 375.46 369.77 375.36 375.41 375.57 C 375.53 392.57 375.46 409.57 375.44 426.57 C 369.78 426.73 364.10 426.70 358.44 426.58 C 358.40 409.56 358.34 392.53 358.48 375.51 Z" />
</g>
</svg>
