<?xml version="1.0" encoding="UTF-8" ?>
<!DOCTYPE svg PUBLIC "-//W3C//DTD SVG 1.1//EN" "http://www.w3.org/Graphics/SVG/1.1/DTD/svg11.dtd">
<svg width="512pt" height="512pt" viewBox="0 0 512 512" version="1.1" xmlns="http://www.w3.org/2000/svg">
<g id="#000000ff">
<path fill="#000000" stroke="#000000" stroke-width="0.09375" opacity="1.00" d=" M 14.47 0.00 L 414.58 0.00 C 419.86 0.72 424.87 3.82 427.39 8.60 C 430.26 13.59 429.24 19.55 429.42 25.04 C 429.30 30.47 430.19 36.39 427.20 41.27 C 424.36 46.42 418.66 49.35 412.90 49.69 C 412.90 55.15 412.89 60.60 412.91 66.06 C 434.95 66.10 457.00 66.03 479.04 66.09 C 487.90 66.07 496.67 69.81 502.77 76.24 C 507.95 81.49 510.86 88.53 512.00 95.73 L 512.00 118.94 C 510.55 129.85 503.93 140.09 493.96 145.01 C 489.08 147.55 483.56 148.68 478.08 148.66 C 456.36 148.69 434.64 148.64 412.92 148.68 C 412.89 165.18 412.89 181.69 412.92 198.19 C 437.96 198.25 463.02 198.13 488.07 198.24 C 500.22 198.34 510.76 208.59 512.00 220.55 L 512.00 440.26 C 510.63 452.17 500.11 462.33 487.98 462.41 C 443.67 462.52 399.35 462.46 355.04 462.44 C 345.17 462.53 335.74 456.10 332.13 446.94 C 329.82 441.60 330.37 435.69 330.33 430.02 C 330.30 385.77 330.37 341.51 330.29 297.26 C 253.19 297.28 176.08 297.26 98.98 297.26 C 174.79 368.84 250.54 440.48 326.39 512.00 L 0.00 512.00 L 0.00 203.75 C 5.46 208.98 10.94 214.19 16.49 219.31 C 16.54 162.77 16.51 106.23 16.51 49.69 C 8.43 49.51 1.33 43.31 0.00 35.36 L 0.00 14.58 C 0.99 7.17 7.09 1.07 14.47 0.00 M 16.52 16.54 C 16.51 22.03 16.51 27.51 16.52 33.00 C 148.65 33.00 280.78 33.01 412.91 32.99 C 412.91 27.51 412.89 22.03 412.91 16.55 C 280.78 16.52 148.65 16.53 16.52 16.54 M 33.03 49.54 C 33.02 111.34 33.04 173.15 33.02 234.96 C 49.11 250.27 65.36 265.41 81.42 280.75 C 164.37 280.88 247.32 280.73 330.27 280.83 C 330.39 269.80 330.30 258.77 330.32 247.74 C 305.55 247.73 280.78 247.73 256.01 247.74 C 255.99 242.23 256.00 236.71 256.01 231.20 C 280.78 231.20 305.55 231.20 330.32 231.20 C 330.39 225.68 329.84 220.02 331.78 214.72 C 306.52 214.75 281.26 214.72 256.01 214.74 C 255.99 209.22 255.99 203.71 256.01 198.20 C 302.80 198.20 349.59 198.20 396.38 198.20 C 396.39 181.69 396.39 165.18 396.38 148.67 C 348.75 148.58 301.09 148.82 253.47 148.55 C 232.77 134.91 212.20 121.06 191.56 107.34 C 211.11 94.34 230.64 81.31 250.16 68.27 C 251.67 67.39 253.03 65.83 254.95 66.06 C 302.09 66.07 349.24 66.07 396.38 66.06 C 396.39 60.55 396.39 55.05 396.38 49.54 C 275.27 49.53 154.15 49.53 33.03 49.54 M 264.25 82.61 C 264.26 88.09 264.25 93.58 264.26 99.06 C 324.82 99.07 385.37 99.07 445.93 99.06 C 445.94 93.58 445.93 88.09 445.93 82.61 C 385.37 82.60 324.81 82.59 264.25 82.61 M 462.55 132.18 C 468.36 132.03 474.17 132.26 479.98 132.07 C 487.61 131.77 494.40 125.45 495.31 117.88 C 495.69 111.60 495.41 105.29 495.47 99.00 C 495.60 90.93 488.96 83.49 480.94 82.72 C 474.78 82.42 468.62 82.69 462.46 82.60 C 462.51 99.12 462.33 115.65 462.55 132.18 M 221.35 107.37 C 230.19 113.16 238.94 119.09 247.74 124.96 C 247.75 113.23 247.74 101.50 247.74 89.77 C 238.93 95.61 230.15 101.50 221.35 107.37 M 264.26 132.12 C 324.82 132.14 385.37 132.13 445.93 132.13 C 445.94 126.62 445.93 121.11 445.93 115.61 C 385.40 115.56 324.88 115.67 264.35 115.55 C 264.15 121.07 264.31 126.60 264.26 132.12 M 352.14 215.27 C 348.61 216.53 346.52 220.33 346.83 224.00 C 346.85 295.00 346.83 366.00 346.84 437.00 C 346.37 441.99 350.98 446.44 355.94 445.93 C 399.67 445.92 443.40 445.97 487.13 445.91 C 491.87 446.09 495.91 441.62 495.48 436.94 C 495.50 366.95 495.47 296.96 495.50 226.97 C 495.43 224.44 495.78 221.76 494.65 219.40 C 493.29 216.50 490.14 214.58 486.93 214.74 C 443.62 214.71 400.31 214.76 357.01 214.72 C 355.37 214.75 353.68 214.66 352.14 215.27 M 16.53 242.14 C 16.50 260.51 16.52 278.89 16.52 297.26 C 22.02 297.27 27.52 297.26 33.03 297.27 C 33.03 302.78 33.03 308.29 33.03 313.80 C 27.52 313.80 22.02 313.79 16.52 313.80 C 16.51 319.31 16.51 324.82 16.52 330.33 C 22.02 330.34 27.52 330.33 33.01 330.33 C 33.05 335.84 33.03 341.35 33.03 346.86 C 27.52 346.87 22.02 346.86 16.52 346.87 C 16.51 352.36 16.51 357.84 16.52 363.33 C 22.00 363.33 27.49 363.35 32.97 363.31 C 33.09 368.83 33.01 374.35 33.03 379.86 C 27.52 379.87 22.02 379.86 16.52 379.87 C 16.51 385.38 16.51 390.89 16.52 396.40 C 22.00 396.40 27.49 396.42 32.97 396.38 C 33.10 401.89 33.01 407.41 33.03 412.93 C 27.52 412.94 22.02 412.92 16.52 412.94 C 16.51 418.42 16.51 423.91 16.52 429.40 C 21.97 429.37 27.43 429.48 32.89 429.33 C 33.20 434.85 32.96 440.39 33.03 445.93 C 27.52 445.94 22.02 445.92 16.52 445.94 C 16.51 451.45 16.51 456.95 16.52 462.46 C 22.00 462.46 27.48 462.49 32.97 462.44 C 33.10 467.96 33.00 473.48 33.03 479.00 C 27.52 479.00 22.02 478.99 16.52 479.00 C 16.51 484.49 16.51 489.97 16.52 495.46 C 105.94 495.47 195.36 495.46 284.78 495.47 C 195.36 411.04 105.97 326.56 16.53 242.14 Z" />
<path fill="#000000" stroke="#000000" stroke-width="0.09375" opacity="1.00" d=" M 101.71 210.96 C 106.76 173.65 111.57 136.30 116.73 99.01 C 135.63 99.14 154.52 99.03 173.41 99.07 C 173.43 104.57 173.41 110.08 173.42 115.59 C 159.31 115.61 145.21 115.59 131.10 115.60 C 125.34 158.76 119.59 201.92 113.84 245.08 C 113.49 247.12 113.56 249.27 112.75 251.20 C 98.69 233.53 84.50 215.96 70.47 198.26 C 63.50 198.12 56.52 198.24 49.55 198.20 C 49.54 192.69 49.54 187.18 49.55 181.67 C 59.11 181.65 68.67 181.69 78.24 181.65 C 86.11 191.38 93.90 201.18 101.71 210.96 Z" />
<path fill="#000000" stroke="#000000" stroke-width="0.09375" opacity="1.00" d=" M 142.83 154.44 C 146.79 150.61 150.57 146.61 154.57 142.82 C 166.32 154.67 178.15 166.43 189.95 178.24 C 201.72 166.54 213.37 154.71 225.20 143.07 C 229.45 146.29 233.17 150.74 237.05 154.59 C 225.18 166.30 213.47 178.18 201.63 189.92 C 213.44 201.69 225.17 213.56 237.05 225.27 C 233.37 229.34 229.25 232.99 225.54 237.04 C 213.50 225.41 201.85 213.39 189.94 201.63 C 178.10 213.43 166.35 225.32 154.44 237.05 C 150.63 233.08 146.61 229.32 142.84 225.30 C 154.69 213.56 166.44 201.72 178.25 189.94 C 166.48 178.07 154.57 166.34 142.83 154.44 Z" />
<path fill="#000000" stroke="#000000" stroke-width="0.09375" opacity="1.00" d=" M 256.01 165.15 C 297.29 165.16 338.58 165.15 379.87 165.16 C 379.87 170.66 379.88 176.17 379.87 181.68 C 338.58 181.68 297.29 181.67 256.01 181.68 C 255.99 176.17 256.00 170.66 256.01 165.15 Z" />
<path fill="#000000" stroke="#000000" stroke-width="0.09375" opacity="1.00" d=" M 363.36 231.23 C 401.89 231.21 440.43 231.23 478.96 231.22 C 478.98 253.24 478.97 275.26 478.97 297.28 C 440.44 297.31 401.92 297.27 363.39 297.30 C 363.31 275.28 363.37 253.25 363.36 231.23 M 379.88 247.75 C 379.87 258.76 379.87 269.76 379.88 280.77 C 407.40 280.77 434.92 280.77 462.45 280.77 C 462.45 269.76 462.46 258.76 462.44 247.75 C 434.92 247.74 407.40 247.74 379.88 247.75 Z" />
<path fill="#000000" stroke="#000000" stroke-width="0.09375" opacity="1.00" d=" M 379.88 313.81 C 385.38 313.80 390.88 313.80 396.38 313.81 C 396.41 319.31 396.35 324.82 396.41 330.33 C 401.91 330.31 407.40 330.32 412.90 330.32 C 412.91 335.83 412.90 341.33 412.90 346.84 C 407.45 346.80 402.00 346.93 396.55 346.76 C 396.17 352.28 396.49 357.82 396.38 363.35 C 390.88 363.36 385.38 363.36 379.88 363.35 C 379.86 357.85 379.88 352.35 379.87 346.85 C 374.36 346.83 368.86 346.85 363.35 346.83 C 363.35 341.33 363.35 335.83 363.36 330.33 C 368.86 330.31 374.36 330.33 379.87 330.32 C 379.87 324.81 379.86 319.31 379.88 313.81 Z" />
<path fill="#000000" stroke="#000000" stroke-width="0.09375" opacity="1.00" d=" M 49.56 318.78 C 100.25 366.63 150.95 414.48 201.59 462.39 C 150.91 462.57 100.23 462.42 49.55 462.46 C 49.55 414.57 49.53 366.67 49.56 318.78 M 66.07 357.11 C 66.06 386.72 66.06 416.32 66.07 445.93 C 97.43 445.92 128.78 445.96 160.13 445.91 C 128.78 416.31 97.47 386.67 66.07 357.11 Z" />
<path fill="#000000" stroke="#000000" stroke-width="0.09375" opacity="1.00" d=" M 429.42 330.33 C 445.93 330.31 462.44 330.34 478.95 330.31 C 478.99 335.82 478.97 341.33 478.97 346.84 C 462.45 346.83 445.93 346.85 429.41 346.83 C 429.42 341.33 429.41 335.83 429.42 330.33 Z" />
<path fill="#000000" stroke="#000000" stroke-width="0.09375" opacity="1.00" d=" M 363.32 379.98 C 379.84 379.73 396.37 379.93 412.90 379.88 C 412.91 385.38 412.90 390.88 412.90 396.38 C 396.40 396.40 379.89 396.37 363.38 396.40 C 363.30 390.92 363.41 385.45 363.32 379.98 Z" />
<path fill="#000000" stroke="#000000" stroke-width="0.09375" opacity="1.00" d=" M 431.89 393.98 C 435.77 390.06 439.63 386.12 443.62 382.31 C 447.09 385.91 450.68 389.39 454.19 392.96 C 457.77 389.43 461.32 385.86 464.87 382.30 C 468.78 386.16 472.65 390.08 476.54 393.97 C 473.01 397.55 469.40 401.06 465.90 404.67 C 469.46 408.19 472.99 411.76 476.54 415.30 C 472.69 419.24 468.79 423.13 464.87 426.99 C 461.33 423.42 457.79 419.86 454.20 416.33 C 450.67 419.88 447.08 423.37 443.61 426.99 C 439.60 423.18 435.75 419.22 431.87 415.29 C 435.43 411.77 438.95 408.20 442.51 404.68 C 439.04 401.05 435.42 397.56 431.89 393.98 Z" />
<path fill="#000000" stroke="#000000" stroke-width="0.09375" opacity="1.00" d=" M 363.34 412.96 C 379.86 412.83 396.38 412.93 412.90 412.91 C 412.91 418.41 412.90 423.91 412.90 429.41 C 396.40 429.43 379.89 429.40 363.38 429.43 C 363.32 423.94 363.38 418.45 363.34 412.96 Z" />
</g>
<g id="#838f9bff">
<path fill="#838f9b" stroke="#838f9b" stroke-width="0.09375" opacity="1.00" d=" M 16.52 16.54 C 148.65 16.53 280.78 16.52 412.91 16.55 C 412.89 22.03 412.91 27.51 412.91 32.99 C 280.78 33.01 148.65 33.00 16.52 33.00 C 16.51 27.51 16.51 22.03 16.52 16.54 Z" />
</g>
<g id="#e6e9edff">
<path fill="#e6e9ed" stroke="#e6e9ed" stroke-width="0.09375" opacity="1.00" d=" M 33.03 49.54 C 154.15 49.53 275.27 49.53 396.38 49.54 C 396.39 55.05 396.39 60.55 396.38 66.06 C 349.24 66.07 302.09 66.07 254.95 66.06 C 253.03 65.83 251.67 67.39 250.16 68.27 C 230.64 81.31 211.11 94.34 191.56 107.34 C 212.20 121.06 232.77 134.91 253.47 148.55 C 301.09 148.82 348.75 148.58 396.38 148.67 C 396.39 165.18 396.39 181.69 396.38 198.20 C 349.59 198.20 302.80 198.20 256.01 198.20 C 255.99 203.71 255.99 209.22 256.01 214.74 C 281.26 214.72 306.52 214.75 331.78 214.72 C 329.84 220.02 330.39 225.68 330.32 231.20 C 305.55 231.20 280.78 231.20 256.01 231.20 C 256.00 236.71 255.99 242.23 256.01 247.74 C 280.78 247.73 305.55 247.73 330.32 247.74 C 330.30 258.77 330.39 269.80 330.27 280.83 C 247.32 280.73 164.37 280.88 81.42 280.75 C 65.36 265.41 49.11 250.27 33.02 234.96 C 33.04 173.15 33.02 111.34 33.03 49.54 M 101.71 210.96 C 93.90 201.18 86.11 191.38 78.24 181.65 C 68.67 181.69 59.11 181.65 49.55 181.67 C 49.54 187.18 49.54 192.69 49.55 198.20 C 56.52 198.24 63.50 198.12 70.47 198.26 C 84.50 215.96 98.69 233.53 112.75 251.20 C 113.56 249.27 113.49 247.12 113.84 245.08 C 119.59 201.92 125.34 158.76 131.10 115.60 C 145.21 115.59 159.31 115.61 173.42 115.59 C 173.41 110.08 173.43 104.57 173.41 99.07 C 154.52 99.03 135.63 99.14 116.73 99.01 C 111.57 136.30 106.76 173.65 101.71 210.96 M 142.83 154.44 C 154.57 166.34 166.48 178.07 178.25 189.94 C 166.44 201.72 154.69 213.56 142.84 225.30 C 146.61 229.32 150.63 233.08 154.44 237.05 C 166.35 225.32 178.10 213.43 189.94 201.63 C 201.85 213.39 213.50 225.41 225.54 237.04 C 229.25 232.99 233.37 229.34 237.05 225.27 C 225.17 213.56 213.44 201.69 201.63 189.92 C 213.47 178.18 225.18 166.30 237.05 154.59 C 233.17 150.74 229.45 146.29 225.20 143.07 C 213.37 154.71 201.72 166.54 189.95 178.24 C 178.15 166.43 166.32 154.67 154.57 142.82 C 150.57 146.61 146.79 150.61 142.83 154.44 M 256.01 165.15 C 256.00 170.66 255.99 176.17 256.01 181.68 C 297.29 181.67 338.58 181.68 379.87 181.68 C 379.88 176.17 379.87 170.66 379.87 165.16 C 338.58 165.15 297.29 165.16 256.01 165.15 Z" />
</g>
<g id="#ff826eff">
<path fill="#ff826e" stroke="#ff826e" stroke-width="0.09375" opacity="1.00" d=" M 264.25 82.61 C 324.81 82.59 385.37 82.60 445.93 82.61 C 445.93 88.09 445.94 93.58 445.93 99.06 C 385.37 99.07 324.82 99.07 264.26 99.06 C 264.25 93.58 264.26 88.09 264.25 82.61 Z" />
</g>
<g id="#ffeaa7ff">
<path fill="#ffeaa7" stroke="#ffeaa7" stroke-width="0.09375" opacity="1.00" d=" M 462.55 132.18 C 462.33 115.65 462.51 99.12 462.46 82.60 C 468.62 82.69 474.78 82.42 480.94 82.72 C 488.96 83.49 495.60 90.93 495.47 99.00 C 495.41 105.29 495.69 111.60 495.31 117.88 C 494.40 125.45 487.61 131.77 479.98 132.07 C 474.17 132.26 468.36 132.03 462.55 132.18 Z" />
<path fill="#ffeaa7" stroke="#ffeaa7" stroke-width="0.09375" opacity="1.00" d=" M 16.53 242.14 C 105.97 326.56 195.36 411.04 284.78 495.47 C 195.36 495.46 105.94 495.47 16.52 495.46 C 16.51 489.97 16.51 484.49 16.52 479.00 C 22.02 478.99 27.52 479.00 33.03 479.00 C 33.00 473.48 33.10 467.96 32.97 462.44 C 27.48 462.49 22.00 462.46 16.52 462.46 C 16.51 456.95 16.51 451.45 16.52 445.94 C 22.02 445.92 27.52 445.94 33.03 445.93 C 32.96 440.39 33.20 434.85 32.89 429.33 C 27.43 429.48 21.97 429.37 16.52 429.40 C 16.51 423.91 16.51 418.42 16.52 412.94 C 22.02 412.92 27.52 412.94 33.03 412.93 C 33.01 407.41 33.10 401.89 32.97 396.38 C 27.49 396.42 22.00 396.40 16.52 396.40 C 16.51 390.89 16.51 385.38 16.52 379.87 C 22.02 379.86 27.52 379.87 33.03 379.86 C 33.01 374.35 33.09 368.83 32.97 363.31 C 27.49 363.35 22.00 363.33 16.52 363.33 C 16.51 357.84 16.51 352.36 16.52 346.87 C 22.02 346.86 27.52 346.87 33.03 346.86 C 33.03 341.35 33.05 335.84 33.01 330.33 C 27.52 330.33 22.02 330.34 16.52 330.33 C 16.51 324.82 16.51 319.31 16.52 313.80 C 22.02 313.79 27.52 313.80 33.03 313.80 C 33.03 308.29 33.03 302.78 33.03 297.27 C 27.52 297.26 22.02 297.27 16.52 297.26 C 16.52 278.89 16.50 260.51 16.53 242.14 M 49.56 318.78 C 49.53 366.67 49.55 414.57 49.55 462.46 C 100.23 462.42 150.91 462.57 201.59 462.39 C 150.95 414.48 100.25 366.63 49.56 318.78 Z" />
</g>
<g id="#f5e0cdff">
<path fill="#f5e0cd" stroke="#f5e0cd" stroke-width="0.09375" opacity="1.00" d=" M 221.35 107.37 C 230.15 101.50 238.93 95.61 247.74 89.77 C 247.74 101.50 247.75 113.23 247.74 124.96 C 238.94 119.09 230.19 113.16 221.35 107.37 Z" />
</g>
<g id="#b4dd7fff">
<path fill="#b4dd7f" stroke="#b4dd7f" stroke-width="0.09375" opacity="1.00" d=" M 264.26 132.12 C 264.31 126.60 264.15 121.07 264.35 115.55 C 324.88 115.67 385.40 115.56 445.93 115.61 C 445.93 121.11 445.94 126.62 445.93 132.13 C 385.37 132.13 324.82 132.14 264.26 132.12 Z" />
</g>
<g id="#fcd770ff">
<path fill="#fcd770" stroke="#fcd770" stroke-width="0.09375" opacity="1.00" d=" M 352.14 215.27 C 353.68 214.66 355.37 214.75 357.01 214.72 C 400.31 214.76 443.62 214.71 486.93 214.74 C 490.14 214.58 493.29 216.50 494.65 219.40 C 495.78 221.76 495.43 224.44 495.50 226.97 C 495.47 296.96 495.50 366.95 495.48 436.94 C 495.91 441.62 491.87 446.09 487.13 445.91 C 443.40 445.97 399.67 445.92 355.94 445.93 C 350.98 446.44 346.37 441.99 346.84 437.00 C 346.83 366.00 346.85 295.00 346.83 224.00 C 346.52 220.33 348.61 216.53 352.14 215.27 M 363.36 231.23 C 363.37 253.25 363.31 275.28 363.39 297.30 C 401.92 297.27 440.44 297.31 478.97 297.28 C 478.97 275.26 478.98 253.24 478.96 231.22 C 440.43 231.23 401.89 231.21 363.36 231.23 M 379.88 313.81 C 379.86 319.31 379.87 324.81 379.87 330.32 C 374.36 330.33 368.86 330.31 363.36 330.33 C 363.35 335.83 363.35 341.33 363.35 346.83 C 368.86 346.85 374.36 346.83 379.87 346.85 C 379.88 352.35 379.86 357.85 379.88 363.35 C 385.38 363.36 390.88 363.36 396.38 363.35 C 396.49 357.82 396.17 352.28 396.55 346.76 C 402.00 346.93 407.45 346.80 412.90 346.84 C 412.90 341.33 412.91 335.83 412.90 330.32 C 407.40 330.32 401.91 330.31 396.41 330.33 C 396.35 324.82 396.41 319.31 396.38 313.81 C 390.88 313.80 385.38 313.80 379.88 313.81 M 429.42 330.33 C 429.41 335.83 429.42 341.33 429.41 346.83 C 445.93 346.85 462.45 346.83 478.97 346.84 C 478.97 341.33 478.99 335.82 478.95 330.31 C 462.44 330.34 445.93 330.31 429.42 330.33 M 363.32 379.98 C 363.41 385.45 363.30 390.92 363.38 396.40 C 379.89 396.37 396.40 396.40 412.90 396.38 C 412.90 390.88 412.91 385.38 412.90 379.88 C 396.37 379.93 379.84 379.73 363.32 379.98 M 431.89 393.98 C 435.42 397.56 439.04 401.05 442.51 404.68 C 438.95 408.20 435.43 411.77 431.87 415.29 C 435.75 419.22 439.60 423.18 443.61 426.99 C 447.08 423.37 450.67 419.88 454.20 416.33 C 457.79 419.86 461.33 423.42 464.87 426.99 C 468.79 423.13 472.69 419.24 476.54 415.30 C 472.99 411.76 469.46 408.19 465.90 404.67 C 469.40 401.06 473.01 397.55 476.54 393.97 C 472.65 390.08 468.78 386.16 464.87 382.30 C 461.32 385.86 457.77 389.43 454.19 392.96 C 450.68 389.39 447.09 385.91 443.62 382.31 C 439.63 386.12 435.77 390.06 431.89 393.98 M 363.34 412.96 C 363.38 418.45 363.32 423.94 363.38 429.43 C 379.89 429.40 396.40 429.43 412.90 429.41 C 412.90 423.91 412.91 418.41 412.90 412.91 C 396.38 412.93 379.86 412.83 363.34 412.96 Z" />
</g>
<g id="#69d6f4ff">
<path fill="#69d6f4" stroke="#69d6f4" stroke-width="0.09375" opacity="1.00" d=" M 379.88 247.75 C 407.40 247.74 434.92 247.74 462.44 247.75 C 462.46 258.76 462.45 269.76 462.45 280.77 C 434.92 280.77 407.40 280.77 379.88 280.77 C 379.87 269.76 379.87 258.76 379.88 247.75 Z" />
</g>
</svg>
