<?xml version="1.0" encoding="UTF-8" ?>
<!DOCTYPE svg PUBLIC "-//W3C//DTD SVG 1.1//EN" "http://www.w3.org/Graphics/SVG/1.1/DTD/svg11.dtd">
<svg width="512pt" height="512pt" viewBox="0 0 512 512" version="1.1" xmlns="http://www.w3.org/2000/svg">
<g id="#000000ff">
<path fill="#000000" stroke="#000000" stroke-width="0.09375" opacity="1.00" d=" M 151.24 8.34 C 156.60 6.52 162.57 12.37 160.67 17.77 C 159.40 22.83 152.45 24.89 148.60 21.40 C 144.00 17.93 145.69 9.80 151.24 8.34 Z" />
<path fill="#000000" stroke="#000000" stroke-width="0.09375" opacity="1.00" d=" M 168.33 52.40 C 177.45 49.98 181.14 64.87 171.95 66.97 C 162.41 70.33 158.50 54.02 168.33 52.40 Z" />
<path fill="#000000" stroke="#000000" stroke-width="0.09375" opacity="1.00" d=" M 251.84 102.00 C 253.23 88.71 265.60 77.95 278.92 78.09 C 307.97 77.98 337.03 78.02 366.08 78.07 C 370.35 77.76 373.48 81.15 374.51 85.00 C 379.10 86.08 384.14 85.28 388.90 85.42 C 390.65 82.20 392.54 78.02 396.95 78.15 C 409.07 78.18 421.29 77.45 433.37 78.62 C 450.63 81.25 461.14 102.38 452.74 117.72 C 447.34 129.39 433.87 134.22 421.71 133.07 C 421.30 141.57 421.93 150.10 421.43 158.60 C 421.19 162.50 417.63 165.08 414.00 165.55 C 408.24 165.30 405.49 159.38 406.30 154.26 C 406.32 147.19 406.46 140.11 406.25 133.05 C 370.59 132.94 334.91 132.86 299.26 133.09 C 299.14 158.07 299.30 183.05 299.18 208.02 C 299.44 212.22 295.96 215.10 292.41 216.48 C 263.07 230.05 238.66 253.93 224.54 283.01 C 227.42 288.54 230.70 293.86 233.83 299.25 C 240.21 284.47 248.47 270.34 259.75 258.75 C 262.43 256.08 264.79 252.22 268.94 251.91 C 275.50 251.58 282.07 251.88 288.64 251.78 C 337.43 251.80 386.22 251.77 435.02 251.79 C 439.17 251.39 442.12 254.60 444.59 257.43 C 472.09 285.66 485.36 327.16 478.80 366.08 C 472.26 410.37 440.21 449.64 398.29 465.22 C 371.11 475.82 340.33 476.31 312.63 467.34 C 311.54 469.78 310.82 472.37 309.68 474.80 C 308.56 476.94 307.37 479.03 306.26 481.18 C 310.86 482.68 315.48 484.18 320.24 485.11 C 359.74 494.66 403.18 486.00 436.00 462.05 C 460.07 444.89 478.55 420.01 488.03 392.01 C 499.26 359.29 498.09 322.43 484.48 290.58 C 471.01 258.25 445.17 231.31 413.39 216.57 C 410.14 215.24 406.57 212.93 406.44 209.02 C 406.26 202.07 406.29 195.11 406.42 188.16 C 406.41 184.01 410.07 180.95 413.99 180.54 C 420.31 180.98 422.50 187.59 421.61 193.00 C 422.30 197.08 419.39 203.59 424.73 205.19 C 445.87 215.84 464.37 231.55 478.70 250.36 C 510.68 291.78 519.76 349.54 501.79 398.71 C 487.97 438.35 457.47 471.82 419.35 489.36 C 380.74 507.73 334.83 508.65 295.01 493.50 C 284.91 500.85 272.52 504.72 260.00 504.26 C 243.99 504.20 227.98 504.32 211.98 504.20 C 207.56 504.51 204.04 500.89 203.58 496.65 C 204.01 492.84 206.85 489.15 210.94 489.10 C 228.98 488.80 247.04 489.19 265.08 488.90 C 278.00 488.50 290.19 480.34 295.69 468.67 C 301.04 458.04 300.41 444.85 294.35 434.65 C 262.66 379.69 230.90 324.76 199.18 269.81 C 197.86 267.31 195.89 264.96 195.75 262.02 C 195.45 235.24 196.08 208.41 195.37 181.66 C 169.60 181.78 143.82 181.58 118.06 181.76 C 117.88 208.20 118.05 234.64 117.98 261.08 C 118.02 262.96 117.43 264.79 116.48 266.40 C 84.13 322.40 51.78 378.41 19.46 434.43 C 13.21 444.74 12.55 458.21 18.12 468.95 C 23.71 480.59 35.99 488.64 48.93 488.92 C 64.96 489.09 81.00 488.97 97.04 488.98 C 124.72 489.03 152.40 488.96 180.08 489.02 C 184.55 488.68 188.22 492.33 188.61 496.66 C 188.12 500.96 184.50 504.60 180.01 504.21 C 136.02 504.20 92.02 504.42 48.03 504.10 C 25.18 503.72 5.47 485.98 0.00 464.24 L 0.00 441.84 C 3.32 430.30 10.17 420.34 15.98 409.98 C 43.81 361.80 71.60 313.59 99.46 265.42 C 100.85 262.77 103.14 260.26 102.77 257.05 C 102.70 231.99 102.83 206.93 102.70 181.87 C 89.23 183.20 74.36 176.33 70.42 162.60 C 64.54 146.37 77.74 127.29 94.96 126.98 C 133.97 126.66 172.99 126.95 212.00 126.83 C 217.87 126.75 224.00 126.92 229.29 129.78 C 243.45 136.18 248.99 155.59 240.50 168.57 C 234.64 178.84 222.28 182.62 211.07 181.81 C 210.82 206.89 211.05 231.97 210.95 257.05 C 210.69 260.89 213.50 263.90 215.24 267.06 C 231.66 240.19 255.17 217.36 283.72 203.61 C 284.30 180.15 283.88 156.60 283.92 133.11 C 278.67 132.86 273.23 132.93 268.33 130.72 C 257.27 126.21 250.05 113.87 251.84 102.00 M 366.98 93.24 C 336.97 93.43 306.95 93.20 276.94 93.52 C 271.20 94.55 266.41 100.08 266.80 106.01 C 266.98 112.24 272.71 117.69 278.92 117.65 C 289.24 117.72 299.56 117.68 309.88 117.67 C 349.28 117.70 388.68 117.70 428.08 117.67 C 434.39 117.81 440.24 112.31 440.43 105.98 C 440.79 99.64 435.32 93.73 429.04 93.38 C 418.04 93.08 406.99 93.63 396.00 93.11 C 391.94 92.79 390.28 88.72 389.09 85.55 C 384.37 85.49 379.65 85.48 374.93 85.56 C 373.69 89.01 371.50 93.38 366.98 93.24 M 84.34 154.86 C 84.61 161.26 90.61 166.77 97.03 166.43 C 107.39 166.41 117.75 166.50 128.10 166.38 C 157.72 166.50 187.34 166.43 216.96 166.42 C 224.20 166.67 230.96 159.17 228.95 151.96 C 228.12 145.86 221.95 141.91 216.07 142.04 C 187.02 142.05 157.97 141.99 128.92 142.07 C 118.26 142.00 107.60 142.05 96.95 142.05 C 90.17 141.79 83.89 148.06 84.34 154.86 M 244.18 316.99 C 252.58 331.87 260.93 346.89 269.99 361.36 C 282.21 384.08 295.83 406.09 308.39 428.64 C 312.22 435.64 314.28 443.54 314.57 451.50 C 343.00 462.57 376.22 460.16 403.36 446.36 C 432.29 431.93 454.37 404.39 461.91 372.92 C 471.54 335.73 459.80 294.29 432.84 267.09 C 382.57 266.99 332.29 266.93 282.03 267.12 C 279.03 266.94 276.01 266.90 273.01 267.07 C 259.11 280.65 249.41 298.31 244.18 316.99 Z" />
<path fill="#000000" stroke="#000000" stroke-width="0.09375" opacity="1.00" d=" M 137.39 81.53 C 146.58 78.23 151.06 93.30 141.94 95.93 C 132.66 99.38 127.93 83.94 137.39 81.53 Z" />
<path fill="#000000" stroke="#000000" stroke-width="0.09375" opacity="1.00" d=" M 416.29 292.28 C 420.96 289.67 427.42 293.67 427.23 299.01 C 427.50 304.71 420.24 308.75 415.57 305.38 C 410.75 302.53 411.19 294.59 416.29 292.28 Z" />
<path fill="#000000" stroke="#000000" stroke-width="0.09375" opacity="1.00" d=" M 104.20 318.15 C 107.94 312.03 116.07 314.90 121.94 314.24 C 148.65 314.25 175.36 314.23 202.07 314.25 C 205.12 314.10 208.19 315.63 209.61 318.39 C 232.94 358.71 256.19 399.09 279.51 439.43 C 287.65 449.72 284.24 466.62 271.90 471.83 C 267.26 474.01 261.99 473.76 256.99 473.76 C 201.63 473.75 146.26 473.76 90.89 473.76 C 76.40 473.54 61.88 474.19 47.42 473.42 C 32.96 472.10 24.65 453.69 32.80 441.79 C 56.59 400.57 80.36 359.33 104.20 318.15 M 115.09 329.75 C 92.00 369.72 68.89 409.69 45.84 449.70 C 43.24 453.00 45.80 458.48 50.02 458.45 C 62.97 458.61 75.94 458.59 88.89 458.46 C 146.91 458.61 204.94 458.52 262.97 458.51 C 267.26 458.94 270.55 453.57 267.99 450.03 C 245.50 410.88 222.84 371.81 200.32 332.68 C 199.55 331.63 199.22 330.14 198.00 329.52 C 171.32 329.50 144.62 329.47 117.93 329.54 C 117.22 329.59 115.80 329.69 115.09 329.75 Z" />
<path fill="#000000" stroke="#000000" stroke-width="0.09375" opacity="1.00" d=" M 382.43 317.48 C 387.22 316.59 391.89 321.24 390.97 326.06 C 390.44 331.80 382.51 334.63 378.44 330.53 C 373.71 326.70 376.30 317.97 382.43 317.48 Z" />
<path fill="#000000" stroke="#000000" stroke-width="0.09375" opacity="1.00" d=" M 287.33 336.39 C 296.39 331.64 302.73 347.03 293.30 350.26 C 284.65 354.13 278.65 339.95 287.33 336.39 Z" />
<path fill="#000000" stroke="#000000" stroke-width="0.09375" opacity="1.00" d=" M 423.40 342.43 C 428.74 341.14 434.00 346.75 432.22 351.98 C 430.91 357.28 423.49 359.22 419.73 355.28 C 415.44 351.45 417.77 343.47 423.40 342.43 Z" />
<path fill="#000000" stroke="#000000" stroke-width="0.09375" opacity="1.00" d=" M 137.30 360.44 C 142.44 358.38 148.49 363.63 147.12 369.03 C 146.31 374.59 138.83 377.09 134.75 373.32 C 130.33 369.82 131.90 362.01 137.30 360.44 Z" />
<path fill="#000000" stroke="#000000" stroke-width="0.09375" opacity="1.00" d=" M 170.22 394.23 C 174.87 392.03 180.90 395.80 180.75 401.00 C 181.12 406.91 173.48 411.05 168.86 407.16 C 164.07 404.17 164.95 396.17 170.22 394.23 Z" />
<path fill="#000000" stroke="#000000" stroke-width="0.09375" opacity="1.00" d=" M 322.33 400.39 C 327.30 397.74 333.99 402.48 333.11 408.04 C 332.78 413.75 325.14 416.94 320.88 413.08 C 316.55 409.91 317.51 402.56 322.33 400.39 Z" />
<path fill="#000000" stroke="#000000" stroke-width="0.09375" opacity="1.00" d=" M 118.42 409.50 C 124.05 408.05 129.33 414.51 126.87 419.77 C 125.01 424.88 117.57 426.04 114.25 421.74 C 110.22 417.81 112.97 410.29 118.42 409.50 Z" />
</g>
<g id="#c9fff7ff">
<path fill="#c9fff7" stroke="#c9fff7" stroke-width="0.09375" opacity="1.00" d=" M 366.98 93.24 C 371.50 93.38 373.69 89.01 374.93 85.56 C 379.65 85.48 384.37 85.49 389.09 85.55 C 390.28 88.72 391.94 92.79 396.00 93.11 C 406.99 93.63 418.04 93.08 429.04 93.38 C 435.32 93.73 440.79 99.64 440.43 105.98 C 440.24 112.31 434.39 117.81 428.08 117.67 C 388.68 117.70 349.28 117.70 309.88 117.67 C 303.88 111.07 304.71 101.13 308.81 93.78 C 298.19 93.34 287.56 93.83 276.94 93.52 C 306.95 93.20 336.97 93.43 366.98 93.24 Z" />
<path fill="#c9fff7" stroke="#c9fff7" stroke-width="0.09375" opacity="1.00" d=" M 319.71 175.85 C 321.89 163.98 332.99 154.75 345.02 154.50 C 365.44 154.18 385.88 154.69 406.30 154.26 C 405.49 159.38 408.24 165.30 414.00 165.55 C 413.97 170.55 413.98 175.54 413.99 180.54 C 410.07 180.95 406.41 184.01 406.42 188.16 C 406.29 195.11 406.26 202.07 406.44 209.02 C 406.57 212.93 410.14 215.24 413.39 216.57 C 445.17 231.31 471.01 258.25 484.48 290.58 C 498.09 322.43 499.26 359.29 488.03 392.01 C 478.55 420.01 460.07 444.89 436.00 462.05 C 403.18 486.00 359.74 494.66 320.24 485.11 C 316.90 481.49 313.10 478.34 309.68 474.80 C 310.82 472.37 311.54 469.78 312.63 467.34 C 340.33 476.31 371.11 475.82 398.29 465.22 C 440.21 449.64 472.26 410.37 478.80 366.08 C 485.36 327.16 472.09 285.66 444.59 257.43 C 442.12 254.60 439.17 251.39 435.02 251.79 C 386.22 251.77 337.43 251.80 288.64 251.78 C 294.86 235.24 305.44 220.32 318.65 208.61 C 319.99 197.77 318.03 186.69 319.71 175.85 Z" />
</g>
<g id="#72cec0ff">
<path fill="#72cec0" stroke="#72cec0" stroke-width="0.09375" opacity="1.00" d=" M 266.80 106.01 C 266.41 100.08 271.20 94.55 276.94 93.52 C 287.56 93.83 298.19 93.34 308.81 93.78 C 304.71 101.13 303.88 111.07 309.88 117.67 C 299.56 117.68 289.24 117.72 278.92 117.65 C 272.71 117.69 266.98 112.24 266.80 106.01 Z" />
<path fill="#72cec0" stroke="#72cec0" stroke-width="0.09375" opacity="1.00" d=" M 299.26 133.09 C 334.91 132.86 370.59 132.94 406.25 133.05 C 406.46 140.11 406.32 147.19 406.30 154.26 C 385.88 154.69 365.44 154.18 345.02 154.50 C 332.99 154.75 321.89 163.98 319.71 175.85 C 318.03 186.69 319.99 197.77 318.65 208.61 C 305.44 220.32 294.86 235.24 288.64 251.78 C 282.07 251.88 275.50 251.58 268.94 251.91 C 264.79 252.22 262.43 256.08 259.75 258.75 C 248.47 270.34 240.21 284.47 233.83 299.25 C 230.70 293.86 227.42 288.54 224.54 283.01 C 238.66 253.93 263.07 230.05 292.41 216.48 C 295.96 215.10 299.44 212.22 299.18 208.02 C 299.30 183.05 299.14 158.07 299.26 133.09 Z" />
<path fill="#72cec0" stroke="#72cec0" stroke-width="0.09375" opacity="1.00" d=" M 306.26 481.18 C 307.37 479.03 308.56 476.94 309.68 474.80 C 313.10 478.34 316.90 481.49 320.24 485.11 C 315.48 484.18 310.86 482.68 306.26 481.18 Z" />
</g>
<g id="#ccccccff">
<path fill="#cccccc" stroke="#cccccc" stroke-width="0.09375" opacity="1.00" d=" M 84.34 154.86 C 83.89 148.06 90.17 141.79 96.95 142.05 C 107.60 142.05 118.26 142.00 128.92 142.07 C 123.33 149.04 124.02 158.87 128.10 166.38 C 117.75 166.50 107.39 166.41 97.03 166.43 C 90.61 166.77 84.61 161.26 84.34 154.86 Z" />
<path fill="#cccccc" stroke="#cccccc" stroke-width="0.09375" opacity="1.00" d=" M 118.06 181.76 C 143.82 181.58 169.60 181.78 195.37 181.66 C 194.82 187.69 195.69 193.77 194.90 199.79 C 180.60 200.31 166.25 199.71 151.94 200.03 C 143.96 200.08 136.18 206.79 135.97 214.96 C 135.47 230.51 136.41 246.12 135.54 261.65 C 131.25 279.23 126.33 296.68 121.94 314.24 C 116.07 314.90 107.94 312.03 104.20 318.15 C 80.36 359.33 56.59 400.57 32.80 441.79 C 24.65 453.69 32.96 472.10 47.42 473.42 C 61.88 474.19 76.40 473.54 90.89 473.76 C 92.44 479.02 94.37 484.18 97.04 488.98 C 81.00 488.97 64.96 489.09 48.93 488.92 C 35.99 488.64 23.71 480.59 18.12 468.95 C 12.55 458.21 13.21 444.74 19.46 434.43 C 51.78 378.41 84.13 322.40 116.48 266.40 C 117.43 264.79 118.02 262.96 117.98 261.08 C 118.05 234.64 117.88 208.20 118.06 181.76 Z" />
</g>
<g id="#e6e6e6ff">
<path fill="#e6e6e6" stroke="#e6e6e6" stroke-width="0.09375" opacity="1.00" d=" M 128.92 142.07 C 157.97 141.99 187.02 142.05 216.07 142.04 C 221.95 141.91 228.12 145.86 228.95 151.96 C 230.96 159.17 224.20 166.67 216.96 166.42 C 187.34 166.43 157.72 166.50 128.10 166.38 C 124.02 158.87 123.33 149.04 128.92 142.07 Z" />
<path fill="#e6e6e6" stroke="#e6e6e6" stroke-width="0.09375" opacity="1.00" d=" M 195.37 181.66 C 196.08 208.41 195.45 235.24 195.75 262.02 C 195.89 264.96 197.86 267.31 199.18 269.81 C 230.90 324.76 262.66 379.69 294.35 434.65 C 300.41 444.85 301.04 458.04 295.69 468.67 C 290.19 480.34 278.00 488.50 265.08 488.90 C 247.04 489.19 228.98 488.80 210.94 489.10 C 206.85 489.15 204.01 492.84 203.58 496.65 C 198.59 496.60 193.60 496.60 188.61 496.66 C 188.22 492.33 184.55 488.68 180.08 489.02 C 152.40 488.96 124.72 489.03 97.04 488.98 C 94.37 484.18 92.44 479.02 90.89 473.76 C 146.26 473.76 201.63 473.75 256.99 473.76 C 261.99 473.76 267.26 474.01 271.90 471.83 C 284.24 466.62 287.65 449.72 279.51 439.43 C 256.19 399.09 232.94 358.71 209.61 318.39 C 208.19 315.63 205.12 314.10 202.07 314.25 C 175.36 314.23 148.65 314.25 121.94 314.24 C 126.33 296.68 131.25 279.23 135.54 261.65 C 136.41 246.12 135.47 230.51 135.97 214.96 C 136.18 206.79 143.96 200.08 151.94 200.03 C 166.25 199.71 180.60 200.31 194.90 199.79 C 195.69 193.77 194.82 187.69 195.37 181.66 Z" />
</g>
<g id="#e58e13ff">
<path fill="#e58e13" stroke="#e58e13" stroke-width="0.09375" opacity="1.00" d=" M 244.18 316.99 C 249.41 298.31 259.11 280.65 273.01 267.07 C 276.01 266.90 279.03 266.94 282.03 267.12 C 271.84 297.40 268.99 329.58 269.99 361.36 C 260.93 346.89 252.58 331.87 244.18 316.99 Z" />
</g>
<g id="#f7d360ff">
<path fill="#f7d360" stroke="#f7d360" stroke-width="0.09375" opacity="1.00" d=" M 282.03 267.12 C 332.29 266.93 382.57 266.99 432.84 267.09 C 459.80 294.29 471.54 335.73 461.91 372.92 C 454.37 404.39 432.29 431.93 403.36 446.36 C 376.22 460.16 343.00 462.57 314.57 451.50 C 314.28 443.54 312.22 435.64 308.39 428.64 C 295.83 406.09 282.21 384.08 269.99 361.36 C 268.99 329.58 271.84 297.40 282.03 267.12 M 416.29 292.28 C 411.19 294.59 410.75 302.53 415.57 305.38 C 420.24 308.75 427.50 304.71 427.23 299.01 C 427.42 293.67 420.96 289.67 416.29 292.28 M 382.43 317.48 C 376.30 317.97 373.71 326.70 378.44 330.53 C 382.51 334.63 390.44 331.80 390.97 326.06 C 391.89 321.24 387.22 316.59 382.43 317.48 M 287.33 336.39 C 278.65 339.95 284.65 354.13 293.30 350.26 C 302.73 347.03 296.39 331.64 287.33 336.39 M 423.40 342.43 C 417.77 343.47 415.44 351.45 419.73 355.28 C 423.49 359.22 430.91 357.28 432.22 351.98 C 434.00 346.75 428.74 341.14 423.40 342.43 M 322.33 400.39 C 317.51 402.56 316.55 409.91 320.88 413.08 C 325.14 416.94 332.78 413.75 333.11 408.04 C 333.99 402.48 327.30 397.74 322.33 400.39 Z" />
</g>
<g id="#e83842ff">
<path fill="#e83842" stroke="#e83842" stroke-width="0.09375" opacity="1.00" d=" M 115.09 329.75 C 115.80 329.69 117.22 329.59 117.93 329.54 C 109.14 363.44 100.12 397.28 91.33 431.19 C 89.01 440.08 88.55 449.31 88.89 458.46 C 75.94 458.59 62.97 458.61 50.02 458.45 C 45.80 458.48 43.24 453.00 45.84 449.70 C 68.89 409.69 92.00 369.72 115.09 329.75 Z" />
</g>
<g id="#fc5f61ff">
<path fill="#fc5f61" stroke="#fc5f61" stroke-width="0.09375" opacity="1.00" d=" M 117.93 329.54 C 144.62 329.47 171.32 329.50 198.00 329.52 C 199.22 330.14 199.55 331.63 200.32 332.68 C 222.84 371.81 245.50 410.88 267.99 450.03 C 270.55 453.57 267.26 458.94 262.97 458.51 C 204.94 458.52 146.91 458.61 88.89 458.46 C 88.55 449.31 89.01 440.08 91.33 431.19 C 100.12 397.28 109.14 363.44 117.93 329.54 M 137.30 360.44 C 131.90 362.01 130.33 369.82 134.75 373.32 C 138.83 377.09 146.31 374.59 147.12 369.03 C 148.49 363.63 142.44 358.38 137.30 360.44 M 170.22 394.23 C 164.95 396.17 164.07 404.17 168.86 407.16 C 173.48 411.05 181.12 406.91 180.75 401.00 C 180.90 395.80 174.87 392.03 170.22 394.23 M 118.42 409.50 C 112.97 410.29 110.22 417.81 114.25 421.74 C 117.57 426.04 125.01 424.88 126.87 419.77 C 129.33 414.51 124.05 408.05 118.42 409.50 Z" />
</g>
</svg>
