<?xml version="1.0" encoding="UTF-8" ?>
<!DOCTYPE svg PUBLIC "-//W3C//DTD SVG 1.1//EN" "http://www.w3.org/Graphics/SVG/1.1/DTD/svg11.dtd">
<svg width="512pt" height="512pt" viewBox="0 0 512 512" version="1.1" xmlns="http://www.w3.org/2000/svg">
<g id="#000000ff">
<path fill="#000000" stroke="#000000" stroke-width="0.09375" opacity="1.00" d=" M 249.36 11.53 C 262.69 7.97 278.70 15.48 282.67 29.11 C 286.86 42.53 278.27 57.65 265.29 62.28 C 254.51 66.33 241.31 62.94 233.93 54.07 C 229.71 49.08 227.72 42.36 228.41 35.87 C 229.45 24.45 238.29 14.36 249.36 11.53 Z" />
<path fill="#000000" stroke="#000000" stroke-width="0.09375" opacity="1.00" d=" M 404.40 73.59 C 419.66 68.78 436.81 80.40 439.08 95.98 C 441.82 110.84 429.97 126.03 415.13 127.75 C 400.32 129.94 385.57 117.85 384.17 103.09 C 382.57 90.03 391.90 77.10 404.40 73.59 Z" />
<path fill="#000000" stroke="#000000" stroke-width="0.09375" opacity="1.00" d=" M 93.35 75.60 C 107.80 71.35 123.88 81.61 127.19 96.05 C 131.42 111.12 118.13 127.16 103.01 127.97 C 88.71 128.24 75.51 116.81 72.67 102.99 C 72.01 90.51 81.46 78.79 93.35 75.60 Z" />
<path fill="#000000" stroke="#000000" stroke-width="0.09375" opacity="1.00" d=" M 239.58 96.88 C 268.48 93.81 298.17 98.98 324.32 111.63 C 356.16 126.89 382.70 152.88 398.70 184.35 C 413.51 213.22 419.09 246.73 414.30 278.83 C 408.06 322.40 382.59 362.51 346.44 387.46 C 323.13 403.69 295.44 413.65 267.08 415.57 C 235.46 417.88 203.24 410.19 175.95 394.07 C 149.33 378.47 127.27 355.16 113.29 327.64 C 98.61 299.04 93.01 265.89 97.57 234.06 C 102.17 200.79 117.88 169.29 141.25 145.23 C 167.08 118.34 202.44 100.71 239.58 96.88 M 241.41 139.62 C 209.38 143.62 179.66 161.81 160.89 187.97 C 146.03 208.40 137.97 233.74 138.73 259.02 C 139.33 285.67 149.74 311.82 167.14 331.94 C 185.55 353.49 211.86 368.26 239.98 372.18 C 266.00 375.94 293.19 370.26 315.65 356.64 C 340.92 341.50 360.33 316.75 368.61 288.44 C 375.40 265.65 374.79 240.74 366.93 218.30 C 356.70 188.69 334.21 163.60 305.95 150.12 C 286.06 140.46 263.33 136.78 241.41 139.62 Z" />
<path fill="#000000" stroke="#000000" stroke-width="0.09375" opacity="1.00" d=" M 31.55 228.72 C 45.24 225.96 59.52 235.65 63.01 248.96 C 67.44 263.88 56.47 281.20 41.09 283.52 C 25.83 285.47 11.02 272.18 10.70 256.93 C 9.97 244.26 18.65 231.00 31.55 228.72 Z" />
<path fill="#000000" stroke="#000000" stroke-width="0.09375" opacity="1.00" d=" M 470.51 228.80 C 485.76 225.39 501.76 237.64 503.27 253.01 C 505.22 267.85 492.93 282.45 478.12 283.60 C 463.38 285.17 449.12 272.84 448.11 258.15 C 446.80 244.55 457.23 231.37 470.51 228.80 Z" />
<path fill="#000000" stroke="#000000" stroke-width="0.09375" opacity="1.00" d=" M 405.45 382.64 C 420.36 378.65 436.58 389.93 439.01 404.94 C 442.03 419.94 430.03 435.45 415.00 437.10 C 400.10 439.23 385.33 426.93 384.14 412.06 C 382.70 398.74 392.57 385.68 405.45 382.64 Z" />
<path fill="#000000" stroke="#000000" stroke-width="0.09375" opacity="1.00" d=" M 96.49 384.68 C 102.07 383.32 108.10 384.08 113.13 386.85 C 121.49 391.38 128.04 399.57 129.98 408.95 C 130.72 422.24 119.97 434.70 107.00 436.90 C 92.83 439.58 77.51 429.22 74.96 414.99 C 72.88 401.32 83.19 387.61 96.49 384.68 Z" />
<path fill="#000000" stroke="#000000" stroke-width="0.09375" opacity="1.00" d=" M 251.22 446.32 C 265.86 443.35 281.05 454.61 283.33 469.17 C 285.74 482.11 277.16 495.57 264.88 499.77 C 257.83 502.32 249.64 501.71 243.22 497.78 C 234.93 492.79 229.79 483.57 228.39 474.16 C 227.74 460.94 238.36 448.61 251.22 446.32 Z" />
</g>
</svg>
