<?xml version="1.0" encoding="UTF-8" ?>
<!DOCTYPE svg PUBLIC "-//W3C//DTD SVG 1.1//EN" "http://www.w3.org/Graphics/SVG/1.1/DTD/svg11.dtd">
<svg width="512pt" height="512pt" viewBox="0 0 512 512" version="1.1" xmlns="http://www.w3.org/2000/svg">
<g id="#000000ff">
<path fill="#000000" stroke="#000000" stroke-width="0.09375" opacity="1.00" d=" M 194.43 0.00 L 195.17 0.00 C 202.14 0.63 208.87 4.79 211.64 11.35 C 214.48 17.36 213.30 24.44 210.01 30.02 C 200.33 47.08 192.83 65.42 188.41 84.55 C 178.38 126.72 183.46 172.07 201.60 211.33 C 221.43 255.03 257.62 290.98 301.33 310.73 C 328.72 323.08 358.91 329.51 389.00 328.53 C 420.33 327.75 451.30 318.91 478.71 303.80 C 483.95 300.89 489.74 297.82 495.95 299.03 C 504.64 300.17 511.35 308.01 512.00 316.62 L 512.00 318.17 C 511.08 325.14 508.13 331.60 506.14 338.29 C 486.14 394.21 446.80 443.14 395.99 473.99 C 375.90 486.37 354.08 495.98 331.32 502.23 C 309.02 508.71 285.79 511.40 262.62 512.00 L 259.37 512.00 C 210.86 511.56 162.50 497.56 121.62 471.38 C 92.73 453.09 67.50 429.05 47.80 401.11 C 17.51 358.61 0.80 306.78 0.00 254.63 L 0.00 248.41 C 0.61 223.15 4.08 197.87 11.76 173.74 C 19.20 149.55 30.42 126.51 44.69 105.61 C 77.50 57.12 127.16 20.38 182.98 2.82 C 186.69 1.50 190.50 0.40 194.43 0.00 M 49.44 181.10 C 33.88 226.69 34.23 277.40 49.89 322.92 C 70.49 383.88 118.84 434.69 178.72 458.23 C 225.21 476.92 278.13 479.15 325.95 464.15 C 364.47 452.24 399.57 429.58 426.42 399.52 C 438.84 385.87 449.21 370.47 457.98 354.26 C 437.58 360.82 416.42 365.33 394.96 366.10 C 335.00 369.51 274.27 348.32 228.89 309.10 C 200.34 284.70 177.69 253.46 163.37 218.75 C 150.19 186.70 143.92 151.72 145.86 117.10 C 146.60 95.65 151.10 74.51 157.64 54.12 C 107.20 80.66 67.42 126.95 49.44 181.10 Z" />
</g>
</svg>
